<svg width="927" height="162" viewBox="0 0 927 162" fill="none" xmlns="http://www.w3.org/2000/svg">
    <path
        d="M522.371 99.6055C522.371 99.3125 522.371 98.5801 522.371 97.4082C522.371 96.2363 522.371 95.4551 522.371 95.0645C520.711 89.2051 520.467 83.4434 521.639 77.7793C522.908 72.1152 525.105 67.0371 528.23 62.5449C531.453 57.9551 535.506 54.1465 540.389 51.1191C545.369 47.9941 550.789 46.0898 556.648 45.4062H559.285C561.434 45.4062 563.191 45.8945 564.559 46.8711C566.023 47.75 567.146 48.9219 567.928 50.3867C568.807 51.8516 569.393 53.5117 569.686 55.3672C570.076 57.2227 570.271 59.0781 570.271 60.9336C570.271 63.4727 569.979 65.9629 569.393 68.4043C568.904 70.748 568.318 73.1406 567.635 75.582C567.049 78.0234 566.463 80.4648 565.877 82.9062C565.389 85.25 565.145 87.7402 565.145 90.377V91.2559C565.242 91.4512 565.34 92.0371 565.438 93.0137C565.633 93.8926 565.779 94.4297 565.877 94.625C566.072 94.625 566.561 94.6738 567.342 94.7715C568.123 94.7715 568.611 94.7715 568.807 94.7715C569.783 94.7715 570.711 94.7715 571.59 94.7715C572.566 94.6738 573.543 94.4297 574.52 94.0391L602.352 81.1484C602.449 81.1484 602.596 81.1484 602.791 81.1484C603.084 81.0508 603.279 81.002 603.377 81.002C604.354 81.002 605.135 81.2949 605.721 81.8809C606.404 82.4668 606.746 83.248 606.746 84.2246C606.746 84.7129 606.697 85.2012 606.6 85.6895C606.6 86.0801 606.355 86.4707 605.867 86.8613C605.184 87.3496 603.914 88.0332 602.059 88.9121C600.301 89.791 598.396 90.7676 596.346 91.8418C594.295 92.916 592.342 93.9414 590.486 94.918C588.729 95.8945 587.459 96.5293 586.678 96.8223C585.311 97.6035 583.797 98.3359 582.137 99.0195C580.477 99.6055 578.768 100.191 577.01 100.777C575.252 101.363 573.494 101.852 571.736 102.242C570.076 102.535 568.563 102.682 567.195 102.682C565.047 102.682 563.289 102.34 561.922 101.656C560.555 100.875 559.529 99.8984 558.846 98.7266C558.162 97.457 557.674 95.9922 557.381 94.332C557.186 92.5742 557.186 90.7676 557.381 88.9121C555.428 90.4746 553.328 92.1348 551.082 93.8926C548.836 95.6504 546.492 97.2617 544.051 98.7266C541.609 100.191 539.119 101.461 536.58 102.535C534.041 103.609 531.453 104.146 528.816 104.146C527.352 104.146 526.033 103.805 524.861 103.121C523.689 102.34 522.859 101.168 522.371 99.6055ZM530.281 96.5293C532.527 96.5293 535.018 95.8945 537.752 94.625C540.486 93.2578 543.172 91.5977 545.809 89.6445C548.445 87.6914 550.838 85.6406 552.986 83.4922C555.135 81.2461 556.795 79.2441 557.967 77.4863C558.064 74.5566 558.455 71.7734 559.139 69.1367C559.92 66.4023 560.311 63.6191 560.311 60.7871C560.311 60.5918 560.262 60.2988 560.164 59.9082C560.164 59.5176 560.164 59.2246 560.164 59.0293C558.895 57.9551 557.82 57.3203 556.941 57.125C556.063 56.9297 554.891 56.832 553.426 56.832C553.23 56.832 552.791 56.832 552.107 56.832C551.521 56.832 551.131 56.8809 550.936 56.9785C550.35 57.4668 549.373 58.3945 548.006 59.7617C546.639 61.0312 545.174 62.4473 543.611 64.0098C542.146 65.5723 540.73 67.0371 539.363 68.4043C538.094 69.7715 537.215 70.6992 536.727 71.1875C536.629 71.1875 536.434 71.3828 536.141 71.7734C535.848 72.0664 535.506 72.457 535.115 72.9453C534.822 73.4336 534.529 73.9219 534.236 74.4102C534.041 74.8008 533.895 75.1426 533.797 75.4355L530.281 92.5742V96.5293Z"
        fill="black"/>
    <path
        d="M479.305 77.4863C479.305 77.4863 479.354 77.4375 479.451 77.3398C479.646 77.1445 479.793 76.998 479.891 76.9004C480.086 76.0215 480.477 74.5078 481.062 72.3594C481.648 70.2109 482.283 67.916 482.967 65.4746C483.65 62.9355 484.285 60.5918 484.871 58.4434C485.555 56.2949 486.043 54.8301 486.336 54.0488C486.434 53.6582 486.727 52.8281 487.215 51.5586C487.801 50.1914 488.436 48.7266 489.119 47.1641C489.803 45.6016 490.486 44.0391 491.17 42.4766C491.854 40.9141 492.342 39.7422 492.635 38.9609C493.318 37.5938 494.344 35.7871 495.711 33.541C497.176 31.2949 498.787 29.1953 500.545 27.2422C502.4 25.1914 504.305 23.4336 506.258 21.9688C508.211 20.4062 510.018 19.625 511.678 19.625C512.557 19.625 513.24 19.8691 513.729 20.3574C514.314 20.8457 514.705 21.4316 514.9 22.1152C515.193 22.7012 515.389 23.3848 515.486 24.166C515.584 24.9473 515.633 25.6309 515.633 26.2168C515.633 31.2949 514.9 36.373 513.436 41.4512C512.068 46.4316 510.164 51.2168 507.723 55.8066C505.281 60.3965 502.352 64.7422 498.934 68.8438C495.613 72.8477 492.098 76.4609 488.387 79.6836C488.289 79.9766 488.143 80.5625 487.947 81.4414C487.85 82.3203 487.752 82.9551 487.654 83.3457V83.6387C487.654 85.5918 488.143 87.1543 489.119 88.3262C490.193 89.498 491.463 90.377 492.928 90.9629C494.393 91.4512 496.004 91.793 497.762 91.9883C499.617 92.1836 501.375 92.2812 503.035 92.2812C503.914 92.2812 505.184 91.8418 506.844 90.9629C508.602 90.084 510.359 89.1074 512.117 88.0332C513.973 86.8613 515.779 85.8359 517.537 84.957C519.295 84.0781 520.613 83.6387 521.492 83.6387C522.371 83.6387 523.055 83.9316 523.543 84.5176C524.031 85.1035 524.275 85.8359 524.275 86.7148C524.275 88.1797 523.152 89.7422 520.906 91.4023C518.66 93.0625 516.072 94.625 513.143 96.0898C510.213 97.457 507.381 98.6289 504.646 99.6055C502.01 100.582 500.252 101.07 499.373 101.07C496.443 101.656 493.709 101.705 491.17 101.217C488.631 100.631 486.434 99.7031 484.578 98.4336C482.723 97.0664 481.16 95.4551 479.891 93.5996C478.719 91.6465 477.986 89.6445 477.693 87.5938L479.305 77.4863ZM506.99 33.834C506.111 33.834 505.086 34.5664 503.914 36.0312C502.84 37.3984 501.766 39.0098 500.691 40.8652C499.617 42.7207 498.641 44.5273 497.762 46.2852C496.98 47.9453 496.541 49.0684 496.443 49.6543C496.15 50.3379 495.711 51.4609 495.125 53.0234C494.539 54.5859 493.953 56.2461 493.367 58.0039C492.781 59.6641 492.195 61.2754 491.609 62.8379C491.121 64.4004 490.779 65.5234 490.584 66.207H491.316C491.316 66.207 491.609 65.8652 492.195 65.1816C492.781 64.4004 493.416 63.5215 494.1 62.5449C494.881 61.5684 495.662 60.5918 496.443 59.6152C497.322 58.541 497.957 57.6621 498.348 56.9785C498.738 56.3926 499.275 55.5137 499.959 54.3418C500.643 53.0723 501.082 52.291 501.277 51.998C501.668 50.9238 502.205 49.5078 502.889 47.75C503.572 45.8945 504.207 44.0879 504.793 42.3301C505.379 40.5723 505.867 39.0586 506.258 37.7891C506.746 36.4219 506.99 35.6406 506.99 35.4453V33.834Z"
        fill="black"/>
    <path
        d="M410.311 135.201C410.311 132.369 410.652 129.195 411.336 125.68C412.02 122.262 412.752 118.795 413.533 115.279C414.314 111.861 415.047 108.492 415.73 105.172C416.414 101.852 416.756 98.7266 416.756 95.7969V94.625L420.271 84.8105C421.541 81.9785 423.006 79.0488 424.666 76.0215C426.326 72.9941 428.182 70.2109 430.232 67.6719C432.381 65.0352 434.822 62.8379 437.557 61.0801C440.291 59.2246 443.367 58.0527 446.785 57.5645C447.957 57.3691 449.227 57.6133 450.594 58.2969C451.961 58.8828 453.23 59.6641 454.402 60.6406C455.672 61.6172 456.697 62.7402 457.479 64.0098C458.26 65.2793 458.748 66.5 458.943 67.6719C458.943 67.8672 458.943 68.2578 458.943 68.8438C458.943 69.4297 458.943 70.0645 458.943 70.7481C458.943 71.4316 458.943 72.0664 458.943 72.6523C458.943 73.2383 458.943 73.6777 458.943 73.9707C458.943 76.7051 458.553 79.3418 457.771 81.8809C456.99 84.4199 456.6 86.8613 456.6 89.2051V89.6445C456.893 89.4492 457.576 89.1074 458.65 88.6191C459.725 88.1309 460.945 87.5938 462.312 87.0078C463.777 86.4219 465.34 85.7871 467 85.1035C468.758 84.4199 470.418 83.7852 471.98 83.1992C473.543 82.6133 474.91 82.1738 476.082 81.8809C477.352 81.4902 478.23 81.2949 478.719 81.2949C479.891 81.2949 480.574 81.4902 480.77 81.8809C481.062 82.1738 481.209 82.7109 481.209 83.4922C481.209 84.5664 480.574 85.6406 479.305 86.7148C478.035 87.7891 476.375 88.8145 474.324 89.791C472.371 90.7676 470.174 91.6953 467.732 92.5742C465.389 93.3555 463.094 94.0879 460.848 94.7715C458.699 95.4551 456.795 96.1387 455.135 96.8223C453.475 97.4082 452.352 97.8477 451.766 98.1406C450.691 98.9219 449.666 99.752 448.689 100.631C447.811 101.51 446.883 102.291 445.906 102.975C444.93 103.658 443.904 104.244 442.83 104.732C441.756 105.221 440.535 105.465 439.168 105.465C437.117 105.465 435.115 104.928 433.162 103.854C431.307 102.682 429.598 101.51 428.035 100.338L427.303 100.924C427.303 101.021 426.961 102.34 426.277 104.879C425.691 107.418 424.959 110.348 424.08 113.668C423.299 117.086 422.469 120.455 421.59 123.775C420.809 127.096 420.174 129.684 419.686 131.539C419.49 132.613 419.344 133.688 419.246 134.762C419.148 135.934 418.904 137.008 418.514 137.984C418.221 139.059 417.684 139.938 416.902 140.621C416.121 141.305 415.047 141.646 413.68 141.646H411.775C411.189 140.475 410.799 139.4 410.604 138.424C410.408 137.545 410.311 136.471 410.311 135.201ZM429.939 91.9883C431.014 92.6719 432.137 93.0625 433.309 93.1602C434.48 93.2578 435.604 93.2578 436.678 93.1602C437.85 92.9648 438.973 92.7207 440.047 92.4277C441.219 92.1348 442.342 91.9883 443.416 91.9883C443.611 91.9883 444.051 91.9883 444.734 91.9883C445.418 91.8906 445.809 91.8418 445.906 91.8418C447.078 91.2559 448.006 90.1816 448.689 88.6191C449.373 87.0566 449.861 85.3965 450.154 83.6387C450.545 81.8809 450.789 80.1719 450.887 78.5117C450.984 76.7539 451.033 75.3867 451.033 74.4102C451.033 73.5312 450.984 72.6035 450.887 71.627C450.789 70.6504 450.545 69.7715 450.154 68.9902C449.861 68.1113 449.422 67.3789 448.836 66.793C448.25 66.207 447.42 65.9141 446.346 65.9141C446.15 65.9141 445.809 65.9629 445.32 66.0606C444.93 66.0606 444.637 66.0606 444.441 66.0606C444.051 67.2324 443.221 68.8438 441.951 70.8945C440.779 72.8477 439.51 74.8984 438.143 77.0469C436.873 79.1953 435.701 81.2949 434.627 83.3457C433.553 85.2988 433.016 86.8125 433.016 87.8867L429.939 91.9883Z"
        fill="black"/>
    <path
        d="M338.24 99.6055C338.24 99.3125 338.24 98.5801 338.24 97.4082C338.24 96.2363 338.24 95.4551 338.24 95.0645C336.58 89.2051 336.336 83.4434 337.508 77.7793C338.777 72.1152 340.975 67.0371 344.1 62.5449C347.322 57.9551 351.375 54.1465 356.258 51.1191C361.238 47.9941 366.658 46.0898 372.518 45.4062H375.154C377.303 45.4062 379.061 45.8945 380.428 46.8711C381.893 47.75 383.016 48.9219 383.797 50.3867C384.676 51.8516 385.262 53.5117 385.555 55.3672C385.945 57.2227 386.141 59.0781 386.141 60.9336C386.141 63.4727 385.848 65.9629 385.262 68.4043C384.773 70.748 384.188 73.1406 383.504 75.582C382.918 78.0234 382.332 80.4648 381.746 82.9062C381.258 85.25 381.014 87.7402 381.014 90.377V91.2559C381.111 91.4512 381.209 92.0371 381.307 93.0137C381.502 93.8926 381.648 94.4297 381.746 94.625C381.941 94.625 382.43 94.6738 383.211 94.7715C383.992 94.7715 384.48 94.7715 384.676 94.7715C385.652 94.7715 386.58 94.7715 387.459 94.7715C388.436 94.6738 389.412 94.4297 390.389 94.0391L418.221 81.1484C418.318 81.1484 418.465 81.1484 418.66 81.1484C418.953 81.0508 419.148 81.002 419.246 81.002C420.223 81.002 421.004 81.2949 421.59 81.8809C422.273 82.4668 422.615 83.248 422.615 84.2246C422.615 84.7129 422.566 85.2012 422.469 85.6895C422.469 86.0801 422.225 86.4707 421.736 86.8613C421.053 87.3496 419.783 88.0332 417.928 88.9121C416.17 89.791 414.266 90.7676 412.215 91.8418C410.164 92.916 408.211 93.9414 406.355 94.918C404.598 95.8945 403.328 96.5293 402.547 96.8223C401.18 97.6035 399.666 98.3359 398.006 99.0195C396.346 99.6055 394.637 100.191 392.879 100.777C391.121 101.363 389.363 101.852 387.605 102.242C385.945 102.535 384.432 102.682 383.064 102.682C380.916 102.682 379.158 102.34 377.791 101.656C376.424 100.875 375.398 99.8984 374.715 98.7266C374.031 97.457 373.543 95.9922 373.25 94.332C373.055 92.5742 373.055 90.7676 373.25 88.9121C371.297 90.4746 369.197 92.1348 366.951 93.8926C364.705 95.6504 362.361 97.2617 359.92 98.7266C357.479 100.191 354.988 101.461 352.449 102.535C349.91 103.609 347.322 104.146 344.686 104.146C343.221 104.146 341.902 103.805 340.73 103.121C339.559 102.34 338.729 101.168 338.24 99.6055ZM346.15 96.5293C348.396 96.5293 350.887 95.8945 353.621 94.625C356.355 93.2578 359.041 91.5977 361.678 89.6445C364.314 87.6914 366.707 85.6406 368.855 83.4922C371.004 81.2461 372.664 79.2441 373.836 77.4863C373.934 74.5566 374.324 71.7734 375.008 69.1367C375.789 66.4023 376.18 63.6191 376.18 60.7871C376.18 60.5918 376.131 60.2988 376.033 59.9082C376.033 59.5176 376.033 59.2246 376.033 59.0293C374.764 57.9551 373.689 57.3203 372.811 57.125C371.932 56.9297 370.76 56.832 369.295 56.832C369.1 56.832 368.66 56.832 367.977 56.832C367.391 56.832 367 56.8809 366.805 56.9785C366.219 57.4668 365.242 58.3945 363.875 59.7617C362.508 61.0312 361.043 62.4473 359.48 64.0098C358.016 65.5723 356.6 67.0371 355.232 68.4043C353.963 69.7715 353.084 70.6992 352.596 71.1875C352.498 71.1875 352.303 71.3828 352.01 71.7734C351.717 72.0664 351.375 72.457 350.984 72.9453C350.691 73.4336 350.398 73.9219 350.105 74.4102C349.91 74.8008 349.764 75.1426 349.666 75.4355L346.15 92.5742V96.5293Z"
        fill="black"/>
    <mask id="mask0_3315_45" style="mask-type:alpha" maskUnits="userSpaceOnUse" x="0" y="0" width="927" height="162">
        <path d="M315 0V162H0V0H315ZM927 162H627V0H927V162Z" fill="#D9D9D9"/>
    </mask>
    <g mask="url(#mask0_3315_45)">
        <path fill-rule="evenodd" clip-rule="evenodd"
              d="M920.007 87.2856C908.273 87.5875 896.553 87.9546 884.809 88.1561C881.487 88.2151 878.01 87.9285 874.773 87.5661C860.506 85.9713 846.363 84.1972 832.057 82.6615C814.581 80.784 797.082 81.0583 779.731 83.0554C771.489 84.0072 763.388 85.3352 754.977 85.8318C748.729 86.2004 742.006 85.6809 735.614 85.2532C717.033 84.0133 698.599 82.3848 679.948 81.3549C662.919 80.4169 646.845 82.4454 631.961 85.5353C608.275 90.4521 584.19 91.3326 558.695 88.0542C539.85 85.6295 520.885 82.8653 500.725 83.142C483.15 83.3796 465.665 84.5819 448.09 84.9452C427.631 85.3667 407.093 85.6257 386.628 85.4019C372.539 85.2494 358.546 83.7834 344.453 83.5911C332.102 83.4225 319.49 83.8171 307.298 84.6624C285.557 86.1713 263.831 87.1499 241.724 87.2028C213.746 87.2679 186.806 84.6839 159.548 82.8148C138.137 81.3488 116.822 80.6935 95.0616 82.4439C73.5241 84.1742 51.6355 85.2609 29.8206 86.3966C21.9547 86.8066 13.7358 86.9285 6.30639 85.2686C4.77783 84.9253 3.03395 84.6233 1.91663 84.1229C0.888544 83.6639 -0.382021 82.6791 0.108747 82.4201C1.14266 81.8806 3.51696 81.2583 4.90198 81.3863C28.6489 83.5949 51.069 80.3487 73.9082 78.895C94.5398 77.5799 115.234 76.0304 136.164 77.0289C153.684 77.8665 170.902 79.6398 188.41 80.5311C206.714 81.4629 225.187 82.1297 243.626 82.381C268.44 82.7182 292.62 80.5464 316.956 78.9041C327.852 78.1708 339.369 78.6122 350.561 78.8674C370.365 79.3187 390.158 80.5878 409.917 80.482C432.06 80.3564 454.148 79.0597 476.277 78.3179C501.018 77.488 524.803 78.7616 548.391 82.1396C570.292 85.2762 592.861 86.4441 615.529 82.1281C627.896 79.7739 641.069 77.7746 654.442 76.6442C669.568 75.3675 685.162 76.1875 700.471 77.3784C719.599 78.8712 738.365 82.0162 758.511 79.8008C763.487 79.2536 768.513 78.7379 773.409 78.0826C795.061 75.1866 816.131 76.1208 837.455 78.9754C855.053 81.3311 872.787 83.5382 892.169 82.6967C901.057 82.3105 910.353 83.3734 919.456 83.801C920.43 83.8463 921.735 83.9168 922.251 84.1758C923.989 85.0471 925.44 86.0081 927 86.9323C924.829 87.3147 922.665 87.6956 920.484 88.078C920.325 87.8151 920.166 87.5484 920.007 87.2856Z"
              fill="black"/>
    </g>
</svg>
